<?xml version="1.0" standalone="no"?>
<!DOCTYPE svg PUBLIC "-//W3C//DTD SVG 20010904//EN"
 "http://www.w3.org/TR/2001/REC-SVG-20010904/DTD/svg10.dtd">
<svg version="1.0" xmlns="http://www.w3.org/2000/svg"
 width="500.000000pt" height="500.000000pt" viewBox="0 0 500.000000 500.000000"
 preserveAspectRatio="xMidYMid meet">
<metadata>
Created by potrace 1.14, written by Peter Selinger 2001-2017
</metadata>
<g transform="translate(0.000000,500.000000) scale(0.100000,-0.100000)"
fill="#000000" stroke="none">
<path d="M2240 4313 c-191 -26 -375 -78 -531 -152 -246 -117 -376 -209 -561
-397 -121 -124 -156 -167 -230 -279 -150 -229 -225 -471 -249 -805 -21 -306
13 -514 127 -772 223 -502 507 -814 920 -1007 150 -70 296 -119 450 -153 99
-21 133 -23 364 -22 284 0 350 10 554 78 369 124 669 349 910 684 36 50 66 94
66 96 0 3 27 55 60 116 76 140 137 282 186 430 l38 115 0 275 c1 305 -12 410
-73 597 -105 321 -362 658 -677 886 -71 51 -340 187 -449 226 -125 45 -311 82
-421 84 -82 2 -94 0 -131 -25 -22 -14 -46 -40 -53 -58 l-13 -31 -21 37 c-29
51 -81 76 -164 79 -37 2 -83 1 -102 -2z m236 -95 c21 -23 34 -48 35 -65 l0
-28 11 25 c25 61 35 74 63 92 26 17 43 19 130 14 305 -17 658 -165 957 -401
82 -66 238 -235 314 -342 166 -234 276 -534 273 -747 -1 -44 -3 -72 -6 -61
-23 97 -89 316 -116 385 -160 406 -459 736 -842 928 -196 98 -477 176 -618
170 -62 -3 -72 -6 -88 -28 -43 -61 -40 -64 84 -82 96 -15 127 -25 212 -67 55
-28 116 -64 135 -81 118 -104 180 -178 201 -239 7 -19 38 -51 85 -86 147 -110
291 -270 370 -410 107 -190 157 -344 174 -533 46 -516 -230 -959 -755 -1211
-121 -58 -170 -74 -299 -101 -129 -26 -135 -26 -108 3 42 45 53 88 42 174 -19
149 -50 415 -50 429 0 10 22 3 74 -26 40 -22 112 -56 160 -75 l88 -34 43 92
c75 161 96 274 76 405 -12 74 -47 176 -79 224 l-17 26 -93 -38 c-52 -21 -132
-61 -180 -89 -77 -44 -87 -48 -90 -31 -2 11 6 32 16 47 11 15 23 44 26 63 6
33 11 37 84 65 107 41 184 97 273 197 129 146 186 285 196 478 15 305 -124
552 -388 690 -119 62 -213 84 -349 83 -428 -3 -740 -315 -740 -740 0 -134 18
-212 75 -328 91 -188 219 -313 390 -382 77 -31 81 -34 92 -74 7 -23 19 -50 28
-59 15 -16 21 -60 9 -60 -4 0 -32 15 -63 34 -135 81 -301 152 -313 133 -21
-32 -70 -162 -78 -208 -16 -82 -12 -199 9 -280 23 -88 84 -227 104 -235 18 -6
150 45 246 97 40 22 75 38 77 37 1 -2 -11 -118 -28 -259 -17 -140 -28 -267
-25 -280 4 -14 18 -42 31 -62 31 -45 29 -45 -105 -18 -159 33 -261 75 -439
179 -120 70 -155 97 -259 197 -170 163 -272 336 -333 563 -26 99 -36 339 -18
450 39 241 157 486 322 667 87 96 163 163 239 213 42 28 64 52 89 97 19 35 70
97 124 151 80 79 106 98 196 142 89 44 122 54 216 69 l111 18 -9 26 c-5 15
-20 37 -33 49 -23 22 -30 23 -117 17 -128 -8 -228 -30 -397 -88 -245 -83 -439
-205 -632 -394 -228 -223 -371 -471 -474 -820 -18 -60 -36 -129 -40 -153 -11
-66 -26 -39 -20 36 17 196 57 333 154 532 159 326 462 627 781 777 263 124
485 184 668 180 83 -2 84 -2 118 -39z m-490 -237 c-7 -10 -129 -92 -245 -165
-57 -35 -77 -43 -88 -35 -10 9 -10 15 -2 25 16 20 169 110 252 149 77 36 91
40 83 26z m1169 -43 c69 -35 202 -118 216 -134 9 -11 9 -18 1 -26 -7 -7 -46
11 -135 67 -68 43 -142 93 -163 111 l-39 34 40 -16 c22 -9 58 -25 80 -36z
m-492 6 c40 -9 114 -36 166 -61 151 -72 265 -202 323 -369 83 -240 21 -499
-162 -684 -85 -86 -168 -139 -279 -178 -65 -22 -93 -26 -191 -27 -101 0 -125
4 -198 29 -96 33 -206 102 -284 180 -39 39 -69 85 -106 158 -89 178 -103 331
-47 503 62 190 165 311 330 392 148 71 298 90 448 57z m-1103 -229 c0 -8 -4
-15 -10 -15 -5 0 -10 7 -10 15 0 8 5 15 10 15 6 0 10 -7 10 -15z m1930 -6 c0
-5 -7 -9 -15 -9 -15 0 -20 12 -9 23 8 8 24 -1 24 -14z m-2066 -93 c8 -19 24
-37 35 -41 30 -9 26 -22 -10 -30 -18 -4 -35 -16 -41 -31 -15 -32 -25 -30 -33
5 -3 16 -15 37 -26 47 -26 23 -24 34 6 34 17 0 29 8 37 25 6 14 13 25 14 25 2
0 10 -15 18 -34z m2216 9 c6 -15 17 -25 29 -25 30 0 33 -15 7 -39 -14 -13 -27
-34 -31 -49 l-6 -25 -19 30 c-10 17 -33 36 -52 42 l-33 12 33 14 c17 8 37 26
42 40 12 31 18 32 30 0z m-2445 -305 c4 -6 -1 -22 -9 -35 -24 -37 -130 -272
-150 -333 -18 -53 -38 -64 -44 -24 -5 31 71 215 129 315 51 86 62 97 74 77z
m2698 -69 c50 -82 117 -227 135 -293 8 -29 7 -40 -4 -49 -11 -9 -16 -6 -23 12
-6 13 -29 69 -52 124 -22 55 -61 136 -85 181 -46 85 -52 104 -31 104 6 0 34
-36 60 -79z m226 -623 c8 -21 19 -29 48 -34 67 -12 70 -19 25 -49 -41 -27 -41
-27 -35 -78 7 -54 7 -54 -48 -15 -25 19 -27 19 -62 2 -20 -10 -40 -15 -43 -11
-3 3 -1 22 6 42 12 36 11 38 -25 75 l-37 38 51 7 c48 6 53 10 73 48 23 45 22
46 47 -25z m-3169 12 c20 -39 22 -40 70 -40 28 0 50 -4 50 -9 0 -5 -17 -22
-37 -39 -37 -29 -37 -30 -26 -76 5 -25 7 -46 4 -46 -3 1 -22 9 -41 19 -35 19
-35 19 -78 -6 l-43 -25 7 49 c6 49 6 50 -36 80 -45 34 -44 35 31 47 30 5 39
13 54 46 10 22 20 40 21 40 2 0 13 -18 24 -40z m1648 -117 c-3 -15 -16 -18
-86 -21 -77 -3 -82 -2 -82 18 0 19 6 20 86 20 76 0 85 -2 82 -17z m-44 -79
c30 -12 19 -43 -18 -50 -43 -7 -56 0 -56 32 0 20 5 24 29 24 16 0 36 -3 45 -6z
m-87 -36 c-3 -7 -5 -2 -5 12 0 14 2 19 5 13 2 -7 2 -19 0 -25z m-262 -42 c161
-77 166 -112 9 -72 -54 14 -100 24 -101 22 -1 -1 38 -19 87 -41 50 -21 89 -40
86 -42 -3 -3 -140 22 -178 33 -15 5 -18 -1 -18 -35 l0 -41 73 -2 72 -2 -70 -5
-70 -6 2 -55 c3 -64 -2 -57 -22 31 l-15 64 4 -80 4 -80 -14 50 c-22 83 -17
217 11 303 6 17 29 11 140 -42z m765 35 c21 -40 31 -163 19 -240 -16 -107 -27
-129 -23 -46 l3 70 -12 -52 c-16 -70 -23 -72 -19 -7 l4 54 -84 2 -83 2 83 3
82 4 0 38 0 39 -72 -15 c-139 -27 -150 -27 -88 -1 30 14 69 32 85 41 l30 18
-35 -7 c-19 -3 -61 -14 -93 -24 l-58 -18 3 21 c3 25 92 82 178 115 68 26 67
26 80 3z m-2090 -437 c39 -113 60 -184 55 -184 -10 0 -84 160 -113 242 -40
113 -62 221 -62 305 l1 68 44 -171 c24 -94 58 -211 75 -260z m3370 252 c-22
-115 -62 -232 -112 -334 -27 -57 -52 -101 -54 -99 -2 2 18 69 45 149 27 79 66
214 87 298 38 150 39 153 42 100 2 -30 -2 -82 -8 -114z m-1629 83 c13 -19 0
-169 -16 -195 -27 -42 -161 -38 -185 5 -13 24 -24 152 -17 182 6 23 9 24 107
23 77 0 104 -4 111 -15z m-1559 -243 c37 -112 41 -146 19 -146 -20 0 -97 229
-87 257 13 32 31 2 68 -111z m2968 101 c0 -47 -74 -247 -92 -247 -21 0 -17 34
17 136 21 60 39 115 41 122 6 22 34 13 34 -11z m-1720 -51 c0 -5 -141 -60
-180 -70 -48 -13 10 16 90 46 77 28 90 31 90 24z m531 -37 c44 -17 78 -33 76
-35 -5 -5 -177 55 -177 62 0 9 25 2 101 -27z m-315 -121 l35 -23 -4 -235 c-3
-151 -9 -249 -17 -275 l-13 -40 -13 80 c-29 175 -51 515 -34 515 5 0 26 -10
46 -22z m79 -291 c-1 -145 -5 -231 -12 -247 -10 -20 -12 2 -12 116 -1 77 -4
197 -7 265 -6 121 -6 124 12 106 18 -16 19 -35 19 -240z m22 101 c-2 -18 -4
-6 -4 27 0 33 2 48 4 33 2 -15 2 -42 0 -60z m22 -242 c2 -120 -6 -67 -12 74
-3 90 -2 112 3 65 4 -38 8 -101 9 -139z m1120 182 c-6 -13 -27 -37 -45 -54
-39 -37 -42 -61 -13 -98 22 -28 64 -35 99 -16 26 14 41 43 30 60 -7 11 -13 9
-28 -10 -20 -24 -21 -24 -40 -6 l-21 18 37 49 c20 27 41 49 47 49 17 0 72 -62
78 -89 8 -32 -13 -78 -52 -118 -42 -41 -99 -51 -159 -28 -128 51 -95 265 40
265 37 0 38 -1 27 -22z m-2262 -139 l22 -22 -52 -60 c-66 -76 -123 -104 -178
-88 -49 15 -89 62 -89 106 0 36 12 50 52 60 33 8 46 -12 28 -45 -9 -16 -9 -25
1 -36 23 -28 56 -15 118 46 34 33 64 60 68 60 4 0 17 -10 30 -21z m2117 -143
l90 -97 -25 -24 -24 -24 -92 23 c-51 13 -93 22 -93 19 0 -2 21 -30 46 -61 l46
-56 -27 -24 c-32 -27 -38 -24 -92 52 -20 28 -54 72 -75 98 l-38 46 28 21 29
20 88 -24 89 -25 -54 55 -54 55 24 25 c13 14 28 24 34 22 5 -2 50 -47 100
-101z m-1966 4 c74 -45 89 -123 39 -199 -75 -114 -242 -81 -264 52 -12 76 70
167 151 167 23 0 55 -9 74 -20z m1700 -207 l71 -113 -29 -20 c-15 -11 -30 -20
-33 -20 -9 0 -147 222 -147 238 0 14 53 43 61 34 4 -4 38 -58 77 -119z m-1446
61 c53 -27 78 -57 78 -93 0 -28 -26 -61 -49 -61 -12 0 -12 -3 -3 -12 7 -7 12
-27 12 -44 0 -46 -41 -78 -92 -71 -43 6 -148 56 -155 74 -3 7 8 34 24 60 16
27 43 79 61 116 35 77 34 76 124 31z m1180 -140 c20 -49 39 -93 40 -97 2 -5
30 3 62 17 33 15 60 25 61 24 8 -10 25 -48 25 -56 0 -10 -147 -71 -181 -75
-20 -2 -27 11 -65 123 -24 69 -43 128 -44 131 0 8 43 28 55 25 5 -1 26 -43 47
-92z m-158 31 c8 -31 1 -45 -22 -45 -9 0 -34 -5 -54 -11 -27 -7 -38 -15 -38
-29 0 -22 18 -25 67 -11 25 7 33 6 37 -6 15 -37 6 -51 -39 -62 -36 -9 -45 -16
-45 -32 0 -23 16 -23 107 -4 29 7 33 5 39 -19 3 -15 4 -29 2 -32 -8 -8 -199
-47 -204 -41 -6 6 -55 269 -51 273 2 2 158 38 188 43 4 1 10 -10 13 -24z
m-526 -30 c3 -2 1 -16 -2 -30 -7 -26 -9 -27 -69 -23 -54 3 -62 1 -65 -16 -5
-23 14 -36 56 -36 30 0 32 -2 32 -36 l0 -35 -54 6 -53 7 -12 -47 c-12 -46 -13
-47 -43 -41 -17 3 -33 8 -35 10 -4 4 46 256 52 267 4 5 186 -19 193 -26z m260
-27 c-3 -33 -4 -33 -60 -36 -54 -3 -58 -5 -58 -28 0 -24 2 -25 44 -19 43 7 44
6 48 -24 3 -17 2 -33 0 -36 -3 -3 -25 -5 -49 -5 -36 0 -43 -3 -43 -20 0 -18 7
-20 65 -20 l65 0 0 -35 0 -35 -111 0 -112 0 7 38 c3 20 6 85 6 145 l0 107 101
0 100 0 -3 -32z"/>
<path d="M1713 3513 c-19 -7 -16 -27 7 -48 20 -18 20 -17 20 18 0 37 -3 40
-27 30z"/>
<path d="M3296 3493 c9 -36 8 -35 22 -13 10 16 9 21 -8 30 -19 10 -20 9 -14
-17z"/>
<path d="M1626 3441 c-9 -14 14 -42 57 -73 39 -28 33 -4 -11 44 -27 29 -41 37
-46 29z"/>
<path d="M3344 3405 c-15 -20 -24 -38 -20 -42 7 -7 76 56 76 69 0 20 -31 5
-56 -27z"/>
<path d="M1556 3362 c-3 -6 12 -25 34 -42 49 -39 52 -31 6 17 -19 21 -36 31
-40 25z"/>
<path d="M3424 3333 c-15 -20 -21 -33 -13 -28 23 13 59 48 59 57 0 18 -19 6
-46 -29z"/>
<path d="M3500 3282 c-8 -8 -51 -49 -95 -89 -86 -80 -83 -83 15 -13 105 75
124 94 109 106 -10 8 -18 7 -29 -4z"/>
<path d="M1490 3276 c0 -15 198 -161 207 -153 2 3 -19 24 -48 48 -29 24 -71
61 -94 82 -45 39 -65 46 -65 23z"/>
<path d="M1421 3192 c-10 -18 19 -39 194 -140 l40 -24 -35 32 c-19 17 -70 58
-112 91 -70 53 -78 57 -87 41z"/>
<path d="M3531 3163 c-30 -24 -77 -64 -105 -89 -49 -43 -46 -42 67 26 64 40
117 75 117 80 0 4 -6 12 -12 18 -10 7 -28 -3 -67 -35z"/>
<path d="M1363 3084 c-3 -8 -2 -19 3 -24 15 -15 186 -81 193 -74 3 3 -1 10 -9
16 -33 20 -174 98 -177 98 -2 0 -6 -7 -10 -16z"/>
<path d="M3601 3075 c-19 -14 -59 -37 -88 -51 -47 -24 -68 -44 -45 -44 13 0
175 69 185 79 10 10 2 41 -10 41 -4 -1 -23 -12 -42 -25z"/>
<path d="M1316 2973 c-4 -9 -3 -20 1 -24 9 -9 306 -110 310 -105 3 3 -289 146
-298 146 -4 0 -10 -8 -13 -17z"/>
<path d="M3576 2934 c-59 -30 -106 -57 -103 -60 2 -3 56 12 118 33 93 31 114
42 114 57 0 11 -4 21 -10 22 -5 2 -59 -22 -119 -52z"/>
<path d="M1274 2847 c-7 -21 10 -37 38 -37 14 0 192 -40 253 -57 15 -4 17 -2
9 7 -7 6 -75 33 -153 59 -133 45 -141 46 -147 28z"/>
<path d="M3575 2812 c-77 -26 -133 -48 -124 -50 10 -2 70 9 135 23 66 14 129
28 142 30 27 6 31 45 5 44 -10 0 -81 -22 -158 -47z"/>
<path d="M1250 2720 c0 -27 1 -28 78 -34 42 -4 100 -9 127 -12 28 -4 48 -4 45
-1 -3 3 -60 21 -127 40 l-123 34 0 -27z"/>
<path d="M3617 2708 c-65 -17 -116 -33 -113 -35 7 -7 259 18 269 27 12 11 -4
40 -22 39 -9 0 -69 -15 -134 -31z"/>
<path d="M1236 2595 c-3 -9 -6 -19 -6 -21 0 -2 69 -3 153 -3 l152 2 -75 12
c-41 7 -107 16 -146 20 -61 5 -72 4 -78 -10z"/>
<path d="M3613 2595 c-160 -21 -159 -22 15 -24 156 -1 162 0 162 19 0 24 -22
25 -177 5z"/>
<path d="M1240 2463 c0 -29 27 -29 160 -4 l95 19 -95 2 c-52 1 -110 2 -128 3
-27 2 -32 -1 -32 -20z"/>
<path d="M3605 2479 c-49 -3 -83 -6 -75 -7 8 -1 68 -11 133 -21 114 -17 117
-17 117 1 0 37 -4 38 -175 27z"/>
<path d="M1360 2373 c-96 -7 -108 -11 -102 -38 2 -14 5 -25 6 -25 11 1 220 61
224 65 5 5 -42 4 -128 -2z"/>
<path d="M3523 2374 c4 -4 57 -19 119 -34 102 -25 114 -26 120 -11 11 27 9 30
-24 35 -59 9 -222 16 -215 10z"/>
<path d="M1395 2259 c-49 -10 -93 -19 -97 -19 -10 0 -10 -22 1 -38 6 -10 31
-4 112 29 57 23 106 44 108 46 9 7 -39 1 -124 -18z"/>
<path d="M3490 2277 c0 -6 230 -91 234 -86 2 2 6 13 10 25 6 18 0 21 -56 32
-35 6 -81 14 -103 17 -22 4 -50 8 -62 11 -13 2 -23 3 -23 1z"/>
<path d="M1435 2156 c-99 -31 -108 -38 -92 -60 12 -17 18 -15 99 25 48 24 85
46 82 51 -7 10 -7 10 -89 -16z"/>
<path d="M3490 2165 c0 -3 41 -25 90 -49 84 -39 92 -41 100 -25 6 10 10 20 10
23 0 7 -161 56 -183 56 -9 0 -17 -2 -17 -5z"/>
<path d="M1543 2063 c-79 -36 -143 -69 -143 -72 0 -3 4 -12 9 -20 7 -11 20 -8
68 19 98 55 231 143 211 140 -2 -1 -67 -31 -145 -67z"/>
<path d="M3411 2069 c52 -34 116 -72 144 -85 43 -20 52 -22 64 -9 8 8 13 17
10 19 -6 6 -300 136 -307 136 -3 0 37 -27 89 -61z"/>
<path d="M1635 1959 c-109 -73 -139 -99 -126 -112 7 -7 25 4 53 29 24 22 71
61 106 87 52 41 72 59 60 57 -2 -1 -43 -28 -93 -61z"/>
<path d="M3320 1997 c32 -32 185 -157 191 -157 26 0 12 24 -33 58 -68 50 -177
118 -158 99z"/>
<path d="M1669 1861 c-77 -51 -105 -78 -93 -91 8 -8 28 4 78 46 36 31 66 60
66 65 0 13 -1 12 -51 -20z"/>
<path d="M3310 1882 c0 -5 27 -35 61 -67 47 -45 63 -55 72 -45 9 9 2 20 -31
49 -50 44 -102 76 -102 63z"/>
<path d="M1720 1776 c-64 -46 -78 -65 -59 -77 10 -7 27 5 67 47 28 31 52 58
52 60 0 10 -19 1 -60 -30z"/>
<path d="M3252 1801 c2 -4 25 -32 51 -61 42 -47 50 -52 63 -38 13 13 8 20 -45
61 -58 46 -76 56 -69 38z"/>
<path d="M3190 1757 c0 -7 65 -114 76 -126 3 -3 11 2 19 10 13 13 8 21 -40 69
-30 30 -55 51 -55 47z"/>
<path d="M1775 1704 c-49 -53 -52 -59 -31 -67 15 -6 94 99 82 110 -3 4 -26
-16 -51 -43z"/>
<path d="M3135 1663 c27 -51 52 -93 56 -93 3 0 12 7 19 15 10 13 3 26 -46 82
-32 38 -62 73 -67 78 -6 6 12 -32 38 -82z"/>
<path d="M1861 1663 c-54 -60 -58 -68 -43 -79 14 -11 19 -10 32 8 24 35 82
138 76 138 -2 0 -32 -30 -65 -67z"/>
<path d="M3055 1630 c16 -54 45 -99 60 -94 8 4 15 7 15 8 0 1 -18 27 -41 57
-27 36 -39 46 -34 29z"/>
<path d="M1930 1589 c-26 -33 -30 -43 -19 -50 10 -6 20 4 37 37 13 25 22 48
19 50 -2 2 -19 -14 -37 -37z"/>
<path d="M2405 3883 c-53 -12 -148 -44 -177 -59 -114 -59 -223 -179 -268 -295
-41 -107 -49 -150 -50 -255 -1 -280 158 -513 411 -601 261 -91 577 22 714 255
71 120 97 214 98 347 1 90 -3 123 -22 180 -91 276 -316 437 -601 434 -47 -1
-94 -3 -105 -6z m37 -30 c10 -9 18 -22 18 -28 0 -8 24 -14 68 -17 131 -10 266
-75 369 -178 49 -49 106 -146 119 -205 l7 -30 -27 33 c-16 18 -49 45 -75 60
-61 36 -164 38 -227 5 -47 -25 -94 -75 -112 -119 -12 -28 -17 -30 -61 -30 -46
0 -49 2 -60 32 -7 18 -34 53 -61 77 -99 89 -232 88 -329 -2 -23 -21 -41 -36
-41 -34 0 13 57 90 106 142 43 47 77 71 138 101 117 57 191 73 306 68 94 -4
95 -4 50 10 -60 19 -202 21 -265 3 -77 -22 -175 -69 -182 -86 -3 -9 -34 -34
-69 -57 -35 -22 -69 -47 -75 -56 -9 -15 -10 -14 -4 3 3 11 9 32 12 47 3 15 12
33 19 39 8 6 14 22 14 34 0 42 11 55 44 55 20 0 35 7 43 19 14 23 109 71 140
71 13 0 23 6 23 14 0 20 39 46 69 46 13 0 33 -7 43 -17z m-107 -432 c37 -20
75 -92 75 -141 0 -44 -36 -118 -71 -143 -109 -79 -269 2 -269 137 0 134 145
214 265 147z m555 4 c49 -25 90 -94 90 -152 0 -45 -39 -112 -82 -141 -142 -93
-326 66 -249 216 10 20 30 47 43 59 43 41 136 49 198 18z m-342 -181 c12 -8
22 -22 22 -30 0 -32 50 -111 87 -137 52 -36 86 -47 141 -47 73 0 116 17 172
67 50 45 51 45 45 17 -24 -105 -140 -255 -235 -304 -110 -56 -244 -82 -325
-62 -39 10 -38 10 30 12 l70 3 -70 8 c-80 9 -169 38 -229 73 -80 47 -208 199
-230 273 -6 18 -1 16 30 -12 72 -66 163 -89 254 -65 57 15 133 91 151 150 11
35 40 70 59 70 3 0 16 -7 28 -16z"/>
<path d="M2122 3345 c-7 -14 -12 -47 -12 -73 0 -37 6 -55 28 -80 34 -41 92
-62 140 -51 51 11 57 25 9 21 -81 -7 -164 86 -154 171 6 44 4 46 -11 12z"/>
<path d="M2681 3339 c-29 -84 0 -157 76 -191 41 -18 50 -19 87 -7 l41 13 -47
6 c-85 11 -139 72 -141 160 -1 28 -3 50 -4 50 0 0 -6 -14 -12 -31z"/>
<path d="M2420 2174 c1 -64 44 -92 126 -79 47 7 64 25 64 70 l0 26 -29 -22
c-24 -17 -39 -21 -76 -17 -25 3 -55 14 -65 23 -19 17 -20 17 -20 -1z"/>
<path d="M1539 1341 c-37 -37 -38 -73 -3 -100 35 -28 40 -27 80 13 39 39 43
67 14 96 -28 28 -57 25 -91 -9z"/>
<path d="M1850 1200 c-9 -17 -7 -22 14 -32 20 -8 29 -8 41 2 14 12 14 15 -1
31 -22 24 -41 24 -54 -1z"/>
<path d="M1800 1111 c-14 -27 -14 -27 20 -41 55 -23 78 24 24 49 -32 14 -31
14 -44 -8z"/>
<path d="M594 2305 c17 -204 100 -493 197 -686 238 -477 683 -840 1199 -978
192 -52 305 -66 530 -65 229 0 313 10 510 61 500 129 919 465 1178 945 96 178
185 478 217 736 7 56 -9 76 -21 25 -13 -59 -27 -98 -38 -108 -6 -5 -17 -41
-23 -80 -32 -190 -143 -462 -273 -672 -70 -112 -217 -281 -339 -388 -325 -286
-755 -445 -1201 -445 -164 0 -292 16 -477 59 -358 83 -692 281 -931 552 -86
96 -154 187 -190 249 -10 19 -36 63 -57 98 -46 78 -100 195 -132 285 -26 74
-73 261 -73 290 0 10 -6 25 -14 33 -8 7 -21 44 -29 80 -24 102 -41 107 -33 9z"/>
</g>
</svg>
