<svg width="48" height="48" viewBox="0 0 48 48" fill="none" xmlns="http://www.w3.org/2000/svg">
<g filter="url(#filter0_d_31_331)">
<circle cx="24" cy="24.2247" r="24" fill="#DEE5EE"/>
</g>
<g clip-path="url(#clip0_31_331)">
<path d="M28.5203 23.9335C29.1391 23.0885 29.5 22.059 29.5 20.9434C29.5 18.0436 27.0379 15.6934 24 15.6934C20.9621 15.6934 18.5 18.0436 18.5 20.9434C18.5 22.059 18.8609 23.0885 19.4797 23.9335C19.6387 24.1508 19.8277 24.3969 20.0297 24.6594C20.584 25.3854 21.2457 26.2549 21.7398 27.1122C22.1867 27.8915 22.4145 28.7036 22.5262 29.4706H20.4336C20.3391 28.9784 20.1801 28.4985 19.9266 28.0555C19.5012 27.3172 18.9727 26.6241 18.4441 25.9309C18.2207 25.6397 17.9973 25.3485 17.7824 25.0532C16.9359 23.8924 16.4375 22.4733 16.4375 20.9434C16.4375 16.9567 19.8234 13.7247 24 13.7247C28.1766 13.7247 31.5625 16.9567 31.5625 20.9434C31.5625 22.4733 31.0641 23.8924 30.2133 25.0573C29.9984 25.3526 29.775 25.6438 29.5516 25.935C29.023 26.6241 28.4945 27.3172 28.0691 28.0596C27.8156 28.5026 27.6566 28.9825 27.5621 29.4747H25.4781C25.5898 28.7077 25.8176 27.8915 26.2645 27.1163C26.7586 26.259 27.4203 25.3895 27.9746 24.6635C28.1766 24.401 28.3613 24.1549 28.5203 23.9376V23.9335ZM24 18.9747C22.8613 18.9747 21.9375 19.8565 21.9375 20.9434C21.9375 21.3044 21.6281 21.5997 21.25 21.5997C20.8719 21.5997 20.5625 21.3044 20.5625 20.9434C20.5625 19.1305 22.1008 17.6622 24 17.6622C24.3781 17.6622 24.6875 17.9575 24.6875 18.3184C24.6875 18.6794 24.3781 18.9747 24 18.9747ZM24 34.7247C22.1008 34.7247 20.5625 33.2563 20.5625 31.4434V30.7872H27.4375V31.4434C27.4375 33.2563 25.8992 34.7247 24 34.7247Z" fill="black"/>
</g>
<defs>
<filter id="filter0_d_31_331" x="-4" y="0.22467" width="56" height="56" filterUnits="userSpaceOnUse" color-interpolation-filters="sRGB">
<feFlood flood-opacity="0" result="BackgroundImageFix"/>
<feColorMatrix in="SourceAlpha" type="matrix" values="0 0 0 0 0 0 0 0 0 0 0 0 0 0 0 0 0 0 127 0" result="hardAlpha"/>
<feOffset dy="4"/>
<feGaussianBlur stdDeviation="2"/>
<feComposite in2="hardAlpha" operator="out"/>
<feColorMatrix type="matrix" values="0 0 0 0 0 0 0 0 0 0 0 0 0 0 0 0 0 0 0.25 0"/>
<feBlend mode="normal" in2="BackgroundImageFix" result="effect1_dropShadow_31_331"/>
<feBlend mode="normal" in="SourceGraphic" in2="effect1_dropShadow_31_331" result="shape"/>
</filter>
<clipPath id="clip0_31_331">
<rect width="16.5" height="21" fill="white" transform="translate(15.75 13.7247)"/>
</clipPath>
</defs>
</svg>
